# xmcd
#
# Track frame offsets:
# 150
# 29835
# 43050
# 59685
# 84505
# 101110
# 115790
# 128330
# 139710
# 158232
# 182532
# 207657
#
# Disc length: 2974 seconds
#
#
# Revision: 0
# Processed by: cddbd v1.4PL0 Copyright (c) Steve Scherf et al.
# Submitted via: FreeRIP 2.35 
#
DISCID=ab0b9c0c
DTITLE=The Holmes Brothers - Lotto Land
DYEAR=1996
DGENRE=Blues
TTITLE0=Don't Spare Your Sword
TTITLE1=I See You
TTITLE2=Tell Me Again
TTITLE3=Radio Face
TTITLE4=Funky Bust
TTITLE5=Georgia Peach
TTITLE6=Basement Blues
TTITLE7=Win Big
TTITLE8=On The Rocks
TTITLE9=So Easy
TTITLE10=Simple Things
TTITLE11=Lotto Land
EXTD=
EXTT0=
EXTT1=
EXTT2=
EXTT3=
EXTT4=
EXTT5=
EXTT6=
EXTT7=
EXTT8=
EXTT9=
EXTT10=
EXTT11=
PLAYORDER=
